<?xml version="1.0" standalone="no"?>
<!DOCTYPE svg PUBLIC "-//W3C//DTD SVG 20010904//EN"
 "http://www.w3.org/TR/2001/REC-SVG-20010904/DTD/svg10.dtd">
<svg version="1.0" xmlns="http://www.w3.org/2000/svg"
 width="260.000000pt" height="260.000000pt" viewBox="0 0 260.000000 260.000000"
 preserveAspectRatio="xMidYMid meet">
<metadata>
Created by potrace 1.11, written by Peter Selinger 2001-2013
</metadata>
<g transform="translate(0.000000,260.000000) scale(0.100000,-0.100000)"
fill="#000000" stroke="none">
<path d="M1245 2324 c-11 -2 -47 -10 -80 -16 -210 -40 -402 -193 -507 -403
-38 -76 -75 -185 -92 -272 -9 -43 -18 -91 -22 -108 -10 -50 -13 -375 -4 -445
28 -213 67 -331 158 -472 110 -170 268 -270 517 -324 17 -3 98 -7 180 -9 116
-2 171 2 240 16 116 24 255 70 361 119 l84 39 0 165 c0 126 -3 166 -12 167
-16 1 -111 1 -118 0 -3 -1 -41 -28 -85 -61 -139 -104 -259 -149 -415 -155
-338 -13 -531 165 -565 520 -8 80 -8 73 -6 103 l1 22 601 0 601 0 -5 248 c-2
136 -7 257 -10 270 -30 118 -42 155 -67 209 -116 250 -344 390 -637 391 -54 0
-107 -2 -118 -4z m250 -249 c93 -31 146 -79 192 -170 41 -80 68 -240 68 -395
l0 -65 -439 -1 -438 -1 6 97 c15 247 111 438 254 510 96 49 253 59 357 25z"/>
</g>
</svg>
